<?xml version="1.0" standalone="no"?>
<!DOCTYPE svg PUBLIC "-//W3C//DTD SVG 20010904//EN"
 "http://www.w3.org/TR/2001/REC-SVG-20010904/DTD/svg10.dtd">
<svg version="1.0" xmlns="http://www.w3.org/2000/svg"
 width="300.000000pt" height="167.000000pt" viewBox="0 0 300.000000 167.000000"
 preserveAspectRatio="xMidYMid meet">
<metadata>
Created by potrace 1.10, written by Peter Selinger 2001-2011
</metadata>
<g transform="translate(0.000000,167.000000) scale(0.100000,-0.100000)"
fill="#000000" stroke="none">
<path d="M2715 1641 c-70 -18 -124 -61 -352 -286 l-238 -235 83 -80 84 -80 26
23 c15 13 161 159 325 324 l298 300 -50 21 c-50 22 -118 27 -176 13z"/>
<path d="M10 1515 l0 -115 325 0 325 0 0 -675 0 -675 120 0 120 0 0 680 0 680
308 0 c335 0 370 -4 435 -55 74 -56 110 -191 74 -278 -41 -96 -113 -139 -247
-147 l-95 -5 -3 -101 -3 -101 316 -314 c356 -354 376 -369 495 -369 43 0 80 7
109 20 l44 21 -34 36 c-19 20 -167 171 -329 336 -162 164 -296 302 -298 307
-2 6 2 10 10 10 7 0 41 13 76 30 85 40 162 115 203 198 29 59 34 79 37 164 4
80 1 107 -18 163 -41 124 -138 225 -268 277 l-57 23 -822 3 -823 2 0 -115z"/>
<path d="M10 1170 l0 -120 260 0 260 0 0 120 0 120 -260 0 -260 0 0 -120z"/>
<path d="M1007 1283 c-4 -3 -7 -57 -7 -120 l0 -113 261 0 c286 0 298 2 333 60
20 35 21 99 0 128 -34 49 -55 52 -327 52 -139 0 -257 -3 -260 -7z"/>
<path d="M2050 920 c-12 -24 -42 -65 -68 -92 l-46 -49 75 -76 c283 -291 616
-611 657 -632 57 -29 153 -39 208 -21 88 29 113 -4 -366 475 l-438 438 -22
-43z"/>
<path d="M1010 491 c0 -242 3 -442 8 -444 4 -2 58 -2 120 1 l112 4 -2 437 -3
436 -117 3 -118 3 0 -440z"/>
</g>
</svg>
